<svg id="wave" style="transform:rotate(0deg); transition: 0.3s" viewBox="0 0 1440 490" version="1.1" xmlns="http://www.w3.org/2000/svg"><defs><linearGradient id="sw-gradient-0" x1="0" x2="0" y1="1" y2="0"><stop stop-color="rgba(243, 106, 62, 1)" offset="0%"></stop><stop stop-color="rgba(255, 179, 11, 1)" offset="100%"></stop></linearGradient></defs><path style="transform:translate(0, 0px); opacity:1" fill="url(#sw-gradient-0)" d="M0,49L80,57.2C160,65,320,82,480,106.2C640,131,800,163,960,163.3C1120,163,1280,131,1440,163.3C1600,196,1760,294,1920,310.3C2080,327,2240,261,2400,253.2C2560,245,2720,294,2880,285.8C3040,278,3200,212,3360,204.2C3520,196,3680,245,3840,261.3C4000,278,4160,261,4320,269.5C4480,278,4640,310,4800,302.2C4960,294,5120,245,5280,212.3C5440,180,5600,163,5760,130.7C5920,98,6080,49,6240,65.3C6400,82,6560,163,6720,196C6880,229,7040,212,7200,196C7360,180,7520,163,7680,130.7C7840,98,8000,49,8160,73.5C8320,98,8480,196,8640,269.5C8800,343,8960,392,9120,351.2C9280,310,9440,180,9600,155.2C9760,131,9920,212,10080,277.7C10240,343,10400,392,10560,400.2C10720,408,10880,376,11040,318.5C11200,261,11360,180,11440,138.8L11520,98L11520,490L11440,490C11360,490,11200,490,11040,490C10880,490,10720,490,10560,490C10400,490,10240,490,10080,490C9920,490,9760,490,9600,490C9440,490,9280,490,9120,490C8960,490,8800,490,8640,490C8480,490,8320,490,8160,490C8000,490,7840,490,7680,490C7520,490,7360,490,7200,490C7040,490,6880,490,6720,490C6560,490,6400,490,6240,490C6080,490,5920,490,5760,490C5600,490,5440,490,5280,490C5120,490,4960,490,4800,490C4640,490,4480,490,4320,490C4160,490,4000,490,3840,490C3680,490,3520,490,3360,490C3200,490,3040,490,2880,490C2720,490,2560,490,2400,490C2240,490,2080,490,1920,490C1760,490,1600,490,1440,490C1280,490,1120,490,960,490C800,490,640,490,480,490C320,490,160,490,80,490L0,490Z"></path></svg>